<svg width="492" height="88" viewBox="0 0 492 88" fill="none" xmlns="http://www.w3.org/2000/svg">
<path fill-rule="evenodd" clip-rule="evenodd" d="M411.438 0H0L71.665 80.1429H483.103L411.438 0ZM484.508 81.7143H73.0702L78.691 88H490.129L484.508 81.7143Z" fill="black"/>
<mask id="mask0_701_5350" style="mask-type:alpha" maskUnits="userSpaceOnUse" x="1" y="0" width="491" height="88">
<path fill-rule="evenodd" clip-rule="evenodd" d="M413.299 0H1.87061L73.538 80.1429H484.985L413.299 0ZM486.369 81.7143H74.941L80.5532 88H492L486.369 81.7143Z" fill="white"/>
</mask>
<g mask="url(#mask0_701_5350)">
<path d="M1.87084 1.57138V-4.57764e-05H-1.87061L0.374261 2.51424L1.87084 1.57138ZM413.299 1.57138L414.795 0.628525L414.234 -4.57764e-05H413.299V1.57138ZM73.5382 81.7142L72.0416 82.6571L72.6029 83.2857H73.5382V81.7142ZM484.966 81.7142V83.2857H488.708L486.463 80.7714L484.966 81.7142ZM486.369 83.2857L487.866 82.3428L487.305 81.7142H486.369V83.2857ZM74.9413 83.2857V81.7142H71.1998L73.4447 84.2285L74.9413 83.2857ZM80.5534 89.5714L79.0569 90.5142L79.6181 91.1428H80.5534V89.5714ZM492 89.5714V91.1428H495.742L493.497 88.6285L492 89.5714ZM1.87084 3.14281H413.299V-4.57764e-05H1.87084V3.14281ZM75.0348 80.7714L3.36742 0.628525L0.374261 2.51424L72.0416 82.6571L75.0348 80.7714ZM73.5382 83.2857H484.985V80.1428H73.5382V83.2857ZM411.802 2.51424L483.47 82.6571L486.463 80.7714L414.795 0.628525L411.802 2.51424ZM486.369 81.7142H74.9413V84.8571H486.388V81.7142H486.369ZM82.05 88.6285L76.4378 82.3428L73.4447 84.2285L79.0569 90.5142L82.05 88.6285ZM492 88H80.5534V91.1428H492V88ZM484.873 84.2285L490.485 90.5142L493.478 88.6285L487.866 82.3428L484.873 84.2285Z" fill="url(#paint0_radial_701_5350)"/>
<path d="M476.454 74.8L477.203 75.0671C477.652 75.2242 477.409 74.5642 478.718 75.7271C480.551 77.3771 480.832 77.3142 481.019 77.0942C481.206 76.89 481.861 77.2042 482.272 77.2514C482.665 77.2985 483.077 77.3614 483.395 77.3142L493.085 75.8528L493.871 78.5714L493.89 78.6657C493.983 78.9014 494.488 78.8857 494.507 79.1685C494.526 79.5928 494.301 80.19 494.17 80.7242L493.048 81.4157C492.412 81.9342 491.401 82.6728 491.196 82.9242C489.942 84.4328 492.487 83.5528 491.963 84.59C491.607 85.2971 492.599 85.1714 492.936 85.47C492.973 85.5014 492.374 85.9414 492.393 85.9728C492.543 86.1771 492.543 86.46 493.085 86.4128C493.553 86.3657 495.517 85.3914 495.293 85.7685C495.012 86.2557 493.216 87.7014 492.056 88.7385C490.691 89.43 490.111 89.65 489.83 89.65C489.55 89.65 489.587 89.4457 489.493 89.3357C488.521 90.2314 488.277 90.6557 487.623 91.3314C487.398 91.5671 485.509 92.84 485.509 92.9185C485.527 93.17 485.658 93.3428 485.808 93.4999L487.735 82.1542L487.267 82.5C490.204 85.7371 489.213 84.8728 488.913 84.7471C488.221 83.9457 487.847 83.49 487.791 83.4271C487.155 82.9085 486.294 82.0914 486.089 82.0442C485.434 81.8714 485.022 81.9657 484.536 81.9657C484.031 81.9814 483.582 82.0442 483.039 82.0285H482.946L500.68 84.15C500.718 83.7257 500.886 83.2228 500.942 82.7828C501.017 82.2642 501.129 81.7142 501.073 81.2742C501.036 80.85 500.886 80.4885 500.568 80.2371C500.549 80.2214 500.194 80.41 499.651 80.7242C499.109 81.0228 498.379 81.4471 497.612 81.8714C497.051 82.0128 499.52 80.1428 497.332 81.2271C497.986 80.8342 498.211 80.7242 498.454 80.6142C498.473 80.5985 498.641 80.4885 498.997 80.2685C498.922 80.1742 498.772 80.1428 498.772 80.0014C498.791 79.4985 498.997 78.87 498.884 78.4457C498.81 78.1628 498.398 78.0842 497.968 78.0214C497.687 77.99 497.968 77.55 496.396 78.3671C494.095 79.5771 495.068 78.76 494.956 78.5871C494.918 78.54 494.975 78.3985 494.376 78.7285C492.056 80.0485 489.456 81.5414 487.398 82.72C487.398 82.72 486.987 83.05 486.519 83.4271C486.051 83.7885 485.546 84.2128 485.378 84.4014C484.798 85.0457 485.116 85.1242 485.06 85.4542C486.706 84.3857 487.436 83.9142 488.09 83.49C488.203 83.6157 488.296 83.7257 488.408 83.8357L487.716 84.2757L487.005 84.4014L485.995 85.0457C486.126 85.2028 486.332 85.3285 486.407 85.5171C486.725 86.3657 487.08 87.1828 487.286 88.0942C487.548 89.2728 487.81 90.4357 487.847 91.7557C487.847 91.9285 487.828 92.1014 487.81 92.29V92.3057L492.692 92.8714C493.684 92.9814 494.862 93.3114 495.685 93.2485C496.322 93.2014 496.939 93.1385 497.537 93.0442L500.287 92.6671L498.847 85.3128C498.641 84.2599 498.361 83.2542 498.099 82.2485C497.799 81.0385 497.219 80.0014 497.126 78.6657C497.07 78.0057 497.219 77.2042 497.388 76.4028L480.888 74.4385C480.289 74.36 479.691 74.2657 479.111 74.2028C477.97 74.0928 476.847 73.9985 475.725 73.8885L476.454 74.8ZM497.781 84.2442C496.097 85.3442 494.862 86.1614 492.505 87.6857C493.328 86.79 494.058 86.0042 494.769 85.2185L496.359 84.2128L497.781 84.2442ZM491.252 89.9485L492.225 89.2885L494.021 88.2985L493.89 89.0842L494.077 89.32C490.99 86.1614 492.58 88.3614 491.776 87.8114C491.701 87.7485 491.589 87.67 491.495 87.5914L490.635 86.6171L491.813 86.7585L491.252 90.0742V89.9485Z" fill="#C5934C"/>
<path d="M506.03 88L505.825 91.1428L505.058 103.353L492 102.771L482.59 102.347C474.771 102.001 465.81 102.646 459.393 101.059C450.376 98.8114 441.809 98.7328 432.361 98.8114C423.045 98.89 413.729 98.2928 404.394 98.0571C394.236 97.79 384.078 97.5071 373.901 97.3971C364.922 97.3185 355.905 97.6642 346.944 97.5071C333.494 97.2714 320.043 96.7528 306.611 96.36L307.509 95.1971C304.142 94.4585 300.906 93.3271 297.351 93.0443C275.763 91.3 254.044 93.5314 232.306 92.5571C217.528 91.8971 202.468 92.6357 187.521 92.6828C185.819 92.6828 184.117 92.0228 182.414 92.0071C173.566 91.9914 164.68 91.8185 155.906 92.2114C148.199 92.5571 140.435 94.4585 133.065 94.0814C123.543 93.5942 114.413 91.52 105.097 90.1214C109.961 88.7857 114.975 88.2671 120.026 88.0942C125.376 87.9057 130.782 88.0471 136.17 88.0471C127.901 86.8528 119.651 86.4285 111.607 85.58C108.745 85.2814 106.444 83.2542 103.788 83.2071C96.0242 83.0814 88.2607 83.05 80.5534 83.05L90.2063 91.1585C90.2063 90.1057 90.2063 89.0528 90.2063 88.0157L80.5721 96.1085C85.941 96.0928 91.2539 96.0928 96.5667 96.0771C95.781 92.0071 100.907 93.2014 105.808 93.4528C105.004 94.4428 104.555 94.9928 104.499 95.0871C108.745 95.8257 112.412 96.91 116.265 97.0514C128.781 97.5228 141.352 97.6485 153.923 97.8842C167.018 98.12 180.113 98.3557 193.19 98.5914C206.041 98.9371 218.875 99.2828 231.708 99.6442C246.094 100.006 260.479 100.399 274.865 100.65C288.465 100.87 302.103 100.996 315.703 100.933C317.424 100.917 319.089 99.5185 322.55 97.9628C329.023 97.5071 338.189 100.289 347.636 98.1671C346.832 98.8428 345.878 99.0628 344.961 99.2985C344.886 99.3142 344.98 99.4871 345.055 99.8642C349.189 99.8642 353.398 99.7857 357.589 99.88C372.554 100.194 387.502 100.713 402.486 100.886C412.588 101.011 422.708 100.776 432.81 100.524C439.414 100.351 447.346 100.807 452.228 99.2671C459.412 97.0043 465.829 98.1357 472.694 98.1671C474.976 98.1828 478.138 98.2928 479.391 97.68C484.199 95.3228 488.39 92.6985 492.056 90.5928C491.196 90.5771 484.667 88.6914 479.84 88.2357C471.572 87.4657 462.892 87.6228 453.837 87.3871C454.791 89.1314 455.222 89.9171 455.596 90.5928C449.609 90.5928 444.409 90.5928 439.227 90.5928L439.339 89.87L448.936 89.3042L448.861 88.2357C441.491 88.2357 434.12 88.2985 426.749 88.22C395.171 87.9057 363.594 87.5914 332.035 87.2614C291.59 86.7428 251.145 86.2085 210.718 85.4385C183.237 84.92 155.813 83.7257 128.313 83.27C112.43 83.0342 96.5293 82.7828 80.6282 82.5471L74.2303 82.4528L74.1181 88.0157L74.062 91.1585L73.9497 96.5957L80.6282 96.6742C116.191 97.13 151.772 97.57 187.353 98.0257C229.538 98.5442 271.722 98.78 313.889 99.5185C348.16 100.116 382.394 101.263 416.647 102.143L492.056 104.013L506.891 104.374L507.359 91.1585L507.452 88.3771L506.03 88ZM246.281 96.6585C245.083 94.8671 244.185 93.5471 242.502 91.0485C253.932 92.1328 263.978 93.0914 274.023 94.05L273.949 95.7157C264.745 96.03 255.522 96.3442 246.281 96.6585ZM83.322 88.8485L84.7438 89.9014L80.5721 91.7085L80.3102 91.8185L79.8986 91.1428L79.5806 90.6085C80.3102 89.7914 80.8527 88.9114 81.2642 88L80.5908 88.5657C86.839 90.5457 94.7521 88.8014 101.562 89.5242C102.31 89.6028 103.039 89.7285 103.788 89.8385L103.582 91.0642L80.5908 90.4671L83.5278 88L83.4156 91.1428L80.5908 88.77L83.322 88.8485Z" fill="#C5934C"/>
<path d="M90.4869 98.0571L89.7386 97.79C89.2896 97.6328 89.5328 98.2928 88.2233 97.13C86.39 95.48 86.1094 95.5428 85.9223 95.7628C85.7353 95.9671 85.0805 95.6528 84.669 95.6057C84.2761 95.5585 83.8645 95.4957 83.5465 95.5428L73.8562 97.0042L73.0705 94.2857L73.0518 94.1914C72.9582 93.9557 72.4531 93.9714 72.4344 93.6885C72.4157 93.2642 72.6402 92.6671 72.7712 92.1328L73.8936 91.4414C74.5296 90.9228 75.5398 90.1842 75.7456 89.9328C76.999 88.44 74.4548 89.3042 74.9786 88.2671C75.3341 87.56 74.3426 87.6857 74.0058 87.3871C73.9684 87.3557 74.5671 86.9157 74.5484 86.8842C74.3987 86.68 74.3987 86.3971 73.8562 86.4442C73.3885 86.4914 71.4242 87.4657 71.6487 87.0885C71.9293 86.6014 73.7252 85.1557 74.8851 84.1185C76.2507 83.4271 76.8306 83.2071 77.1112 83.2071C77.3918 83.2071 77.3544 83.4114 77.448 83.5214C78.4207 82.6257 78.6639 82.2014 79.3187 81.5257C79.5432 81.29 81.4326 80.0171 81.4326 79.9385C81.4139 79.6871 81.2829 79.5142 81.1333 79.3571L79.2064 90.7028L79.6741 90.3571C76.7371 87.12 77.7286 87.9842 78.0279 88.11C78.7201 88.9114 79.0942 89.3671 79.1503 89.43C79.7864 89.9485 80.6469 90.7657 80.8527 90.8128C81.5074 90.9857 81.919 90.8914 82.4054 90.8757C82.9105 90.86 83.3595 90.7971 83.902 90.8128H83.9955L66.2611 88.6914C66.2236 89.1157 66.0553 89.6185 65.9991 90.0585C65.9243 90.5771 65.8121 91.1271 65.8682 91.5671C65.9056 91.9914 66.0553 92.3528 66.3733 92.6042C66.392 92.62 66.7474 92.4314 67.2899 92.1171C67.8325 91.8185 68.562 91.3942 69.329 90.97C69.8903 90.8285 67.4209 92.6985 69.6096 91.6142C68.9549 92.0071 68.7304 92.1171 68.4872 92.2271C68.4685 92.2428 68.3001 92.3528 67.9447 92.5728C68.0195 92.6671 68.1692 92.6985 68.1692 92.84C68.1505 93.3428 67.9447 93.9714 68.0569 94.3957C68.1318 94.6785 68.5433 94.7571 68.9736 94.82C69.2542 94.8514 68.9736 95.2914 70.545 94.4742C72.846 93.2642 71.8732 94.0814 71.9855 94.2542C72.0229 94.3014 71.9668 94.4428 72.5654 94.1128C74.8851 92.7928 77.4854 91.3 79.5432 90.1214C79.5432 90.1214 79.9547 89.7914 80.4224 89.4142C80.8901 89.0371 81.3952 88.6285 81.5636 88.44C82.1435 87.7957 81.8255 87.7171 81.8816 87.3871C80.2353 88.4557 79.5058 88.9271 78.851 89.3514C78.7388 89.2257 78.6452 89.1157 78.533 89.0057L79.2252 88.5657L80.0109 88.4871L81.0211 87.8428C80.8901 87.6857 80.6843 87.56 80.6095 87.3714C80.2915 86.5228 79.936 85.7057 79.7302 84.7942C79.4683 83.6157 79.2064 82.4528 79.169 81.1328C79.169 80.96 79.1877 80.7871 79.2064 80.5985V80.5828L74.3239 80.0171C73.3324 79.9071 72.1538 79.5771 71.3307 79.64C70.6947 79.6871 70.0773 79.75 69.4787 79.8442L66.7287 80.2214L68.1692 87.56C68.375 88.6128 68.6556 89.6185 68.8988 90.6242C69.1981 91.8342 69.778 92.8714 69.8715 94.2071C69.9277 94.8671 69.778 95.6685 69.6096 96.47L86.1094 98.4342C86.708 98.5128 87.3067 98.6071 87.8866 98.67C89.0277 98.78 90.1502 98.8742 91.2726 98.9842L90.4869 98.0571ZM69.1607 88.6128C70.8443 87.5128 72.079 86.6957 74.4361 85.1557C73.613 86.0514 72.9021 86.8371 72.1725 87.6228L70.5637 88.6442L69.1607 88.6128ZM75.6708 82.9085L74.698 83.5685L72.9021 84.5742L73.0331 83.7728L72.846 83.5528C75.9327 86.7114 74.3426 84.5114 75.147 85.0614C75.2218 85.1242 75.3341 85.2028 75.4276 85.2814L76.2881 86.2557L75.1096 86.1142L75.6708 82.7985V82.9085Z" fill="#C5934C"/>
<path d="M500.4 81.7142L500.194 84.8571L499.427 97.0671L486.369 96.4857L476.959 96.0614C469.14 95.7157 460.179 96.36 453.762 94.7728C444.746 92.5257 436.178 92.4471 426.731 92.5257C417.414 92.6043 408.098 92.0071 398.763 91.7714C388.605 91.5042 378.447 91.2214 368.27 91.1114C359.291 91.0328 350.274 91.3785 341.313 91.2214C327.863 90.9857 314.412 90.4671 300.981 90.0743L301.879 88.9114C298.511 88.1728 295.275 87.0414 291.721 86.7585C270.132 85.0143 248.413 87.2457 226.675 86.2714C211.897 85.6114 196.837 86.35 181.89 86.3971C180.188 86.3971 178.486 85.7371 176.783 85.7214C167.935 85.7057 159.049 85.5328 150.275 85.9257C142.568 86.2714 134.804 88.1728 127.434 87.7957C117.912 87.3085 108.783 85.2342 99.4664 83.8357C104.33 82.5 109.344 81.9814 114.395 81.8085C119.745 81.62 125.151 81.7614 130.539 81.7614C122.27 80.5671 114.021 80.1428 105.976 79.2942C103.114 78.9957 100.813 76.9685 98.1569 76.9214C90.3934 76.7957 82.6299 76.7642 74.9225 76.7642L84.5754 84.8728C84.5754 83.82 84.5754 82.7671 84.5754 81.73L74.9412 89.8228C80.3102 89.8071 85.623 89.8071 90.9359 89.7914C90.1502 85.7214 95.276 86.9157 100.177 87.1671C99.3728 88.1571 98.9239 88.7071 98.8677 88.8014C103.114 89.54 106.781 90.6242 110.635 90.7657C123.15 91.2371 135.721 91.3628 148.292 91.5985C161.387 91.8342 174.482 92.07 187.559 92.3057C200.411 92.6514 213.244 92.9971 226.077 93.3585C240.463 93.72 254.849 94.1128 269.234 94.3642C282.835 94.5842 296.472 94.71 310.072 94.6471C311.793 94.6314 313.458 93.2328 316.919 91.6771C323.392 91.2214 332.558 94.0028 342.006 91.8814C341.182 92.5571 340.247 92.7771 339.33 93.0128C339.256 93.0285 339.349 93.2014 339.424 93.5785C343.558 93.5785 347.767 93.5 351.958 93.5943C366.924 93.9085 381.871 94.4271 396.855 94.6C406.957 94.7257 417.078 94.49 427.18 94.2385C433.783 94.0657 441.715 94.5214 446.598 92.9814C453.781 90.7185 460.198 91.85 467.063 91.8814C469.346 91.8971 472.507 92.0071 473.761 91.3942C478.568 89.0371 482.759 86.4128 486.425 84.3071C485.565 84.2914 479.036 82.4057 474.209 81.95C465.941 81.18 457.261 81.3371 448.206 81.1014C449.161 82.8457 449.591 83.6314 449.965 84.3071C443.979 84.3071 438.778 84.3071 433.596 84.3071L433.708 83.5842L443.305 83.0185L443.23 81.95C435.86 81.95 428.489 82.0128 421.118 81.9342C389.541 81.62 357.963 81.3057 326.404 80.9757C285.959 80.4571 245.514 79.9228 205.087 79.1528C177.606 78.6342 150.182 77.44 122.682 76.9843C106.8 76.7485 90.8985 76.4971 74.9973 76.2614L68.5995 76.1671L68.4872 81.73L68.4311 84.8728L68.3188 90.31L74.9973 90.3885C110.56 90.8442 146.141 91.2843 181.722 91.74C223.907 92.2585 266.092 92.4942 308.258 93.2328C342.529 93.83 376.764 94.9771 411.016 95.8571L486.425 97.7271L501.26 98.0885L501.728 84.8728L501.821 82.0914L500.4 81.7142ZM240.669 90.3728C239.471 88.5814 238.573 87.2614 236.89 84.7628C248.32 85.8471 258.366 86.8057 268.411 87.7643L268.336 89.43C259.114 89.7442 249.91 90.0585 240.669 90.3728ZM77.6912 82.5628L79.1129 83.6157L74.9412 85.4228L74.6793 85.5328L74.2677 84.8571L73.9497 84.3228C74.6793 83.5057 75.2218 82.6257 75.6334 81.7142L74.9599 82.28C81.2081 84.26 89.1213 82.5157 95.9307 83.2385C96.679 83.3171 97.4086 83.4428 98.1569 83.5528L97.9511 84.7785L74.9599 84.1814L77.8969 81.7142L77.7847 84.8571L74.9599 82.4843L77.6912 82.5628Z" fill="#C5934C"/>
<path d="M403.384 -6.91433L406.77 -8.34433L420.613 -14.2058L425.477 -6.1129L425.552 -5.98719C426.618 -4.22719 428.826 -2.82861 428.452 -0.597185C427.928 2.54567 429.368 4.30567 431.127 6.14424C432.848 7.95139 433.951 10.1671 435.373 12.1628C436.926 14.3471 438.46 16.5471 440.181 18.6214C441.696 20.46 443.642 22.0471 445.082 23.9328C447.252 26.7614 449.142 29.7471 451.162 32.6542L449.89 33.1728C449.797 34.2885 449.291 35.6085 449.647 36.4885C451.836 41.8314 457.822 44.8171 460.759 49.7357C462.761 53.0828 466.147 55.6285 468.84 58.5828C469.14 58.9128 468.822 59.6514 469.121 59.9971C470.674 61.7728 472.096 63.6428 474.022 65.1514C475.725 66.4714 478.924 66.88 479.878 68.5771C481.112 70.7614 480.757 73.8257 481.094 76.5128C478.961 76.3557 477.577 75.6642 476.492 74.7528C475.369 73.7942 474.546 72.6314 473.573 71.5628C473.91 73.92 474.976 75.8214 475.612 77.9271C475.837 78.6814 474.303 80.3628 474.733 80.9128C475.987 82.5314 477.352 84.1028 478.737 85.6271L480.663 74.2814C479.672 74.9257 478.68 75.5542 477.689 76.1828L491.158 77.7857C490.728 77.3142 490.316 76.8428 489.886 76.3714C486.145 78.9642 486.369 77.2357 485.733 76.1042C486.818 75.6642 487.417 75.4285 487.51 75.3814C487.454 74.0928 487.847 72.71 487.286 71.8614C485.509 69.0957 483.395 66.5028 481.374 63.8628C479.279 61.1128 477.109 58.3942 475.051 55.6128C473.05 52.8785 471.16 50.0657 469.196 47.3157C466.988 44.2357 464.8 41.1242 462.461 38.1228C460.254 35.2785 457.934 32.4971 455.446 29.8257C455.128 29.4957 453.482 29.9985 451.405 30.25C449.815 29.2285 450.825 25.74 447.121 25.1428C447.907 24.8914 448.281 24.9542 448.674 25.0014C448.711 25.0014 448.861 24.8757 449.198 24.64C448.468 23.8228 447.645 23.0214 446.972 22.1414C444.615 18.9671 442.426 15.6828 439.938 12.6028C438.254 10.5285 436.234 8.64281 434.195 6.78853C432.866 5.57853 431.875 3.72424 429.537 3.6771C426.094 3.61424 426.038 1.64996 424.841 0.267101C424.448 -0.188613 423.999 -0.895756 423.195 -0.770042C420.089 -0.314328 416.853 0.439957 414.197 0.958529C414.346 1.13139 413.692 3.58281 414.122 4.80853C414.851 6.91424 416.554 8.54853 417.938 10.4971C419.435 9.25567 420.089 8.70567 420.688 8.21853C421.754 9.41281 422.671 10.45 423.606 11.4714L422.895 11.8957L420.651 10.3242L419.64 10.9842C420.95 12.4457 422.316 13.8914 423.569 15.4C428.919 21.8585 434.288 28.3014 439.526 34.8228C446.223 43.1828 452.921 51.5585 459.393 60.0757C463.79 65.8585 467.55 72.0342 472.002 77.7857L478.344 85.8628L481.636 90.0585L487.248 86.9157L490.372 85.1714L495.554 82.2642L491.682 77.44L473.966 55.3771C466.951 46.6714 459.674 38.1228 452.864 29.2914C447.327 22.11 442.332 14.6142 437.057 7.25996L426.787 -6.97719L419.828 -16.6415L405.76 -9.47576L402.654 -7.88861L403.384 -6.91433ZM463.789 46.2314C462.312 47.5514 461.208 48.51 459.113 50.3485C458.121 47.4257 457.242 44.8485 456.363 42.2714L457.953 41.2814C459.917 42.9314 461.844 44.5814 463.789 46.2314ZM483.788 81.6042L484.536 80.6928L487.005 80.4414L486.874 81.2428L486.912 81.5571C484.592 80.3628 483.357 80.74 482.366 81.4314L484.966 81.7457C484.199 80.9757 483.095 80.3628 482.796 79.3571C482.74 79.1528 482.721 78.9328 482.703 78.7285L483.9 78.0371L486.07 81.07L481.58 80.5357L484.816 78.9171L484.255 82.2328L483.788 81.6042Z" fill="#C5934C"/>
<path d="M59.5077 83.2857L59.7135 80.1428L60.4805 67.9328L73.5381 68.5142L82.9478 68.9385C90.7675 69.2842 99.7282 68.64 106.145 70.2271C115.162 72.4742 123.73 72.5528 133.177 72.4742C142.493 72.3957 151.809 72.9928 161.144 73.2285C171.302 73.4957 181.46 73.7785 191.637 73.8885C200.616 73.9671 209.633 73.6214 218.594 73.7785C232.044 74.0142 245.495 74.5328 258.927 74.9257L258.029 76.0885C261.415 76.8271 264.632 77.9585 268.187 78.2414C289.775 79.9857 311.494 77.7542 333.232 78.7285C348.011 79.3885 363.07 78.65 378.017 78.6028C379.719 78.6028 381.422 79.2628 383.124 79.2785C391.972 79.2942 400.858 79.4671 409.632 79.0742C417.339 78.7285 425.103 76.8271 432.474 77.2042C441.996 77.6914 451.125 79.7657 460.441 81.1642C455.577 82.5 450.564 83.0185 445.513 83.1914C440.162 83.38 434.756 83.2385 429.368 83.2385C437.637 84.4328 445.887 84.8571 453.931 85.7057C456.793 86.0042 459.094 88.0314 461.75 88.0785C469.514 88.2042 477.277 88.2357 484.985 88.2357L475.332 80.1271C475.332 81.18 475.332 82.2328 475.332 83.27L484.966 75.1771C479.597 75.1928 474.284 75.1928 468.971 75.2085C469.757 79.2785 464.631 78.0842 459.73 77.8328C460.534 76.8428 460.983 76.2928 461.04 76.1985C456.793 75.46 453.126 74.3757 449.273 74.2342C436.758 73.7628 424.186 73.6371 411.615 73.4014C398.52 73.1657 385.425 72.93 372.349 72.6942C359.497 72.3485 346.664 72.0028 333.83 71.6414C319.445 71.28 305.059 70.8871 290.673 70.6357C277.073 70.4157 263.435 70.29 249.835 70.3528C248.114 70.3685 246.449 71.7671 242.988 73.3228C236.515 73.7785 227.349 70.9971 217.902 73.1185C218.725 72.4428 219.66 72.2228 220.577 71.9871C220.652 71.9714 220.558 71.7985 220.483 71.4214C216.349 71.4214 212.14 71.5 207.95 71.4057C192.984 71.0914 178.037 70.5728 163.052 70.4C152.95 70.2742 142.83 70.51 132.728 70.7614C126.124 70.9342 118.192 70.4785 113.31 72.0185C106.126 74.2814 99.7095 73.15 92.844 73.1185C90.5617 73.1028 87.4002 72.9928 86.1468 73.6057C81.339 75.9628 77.1486 78.5871 73.482 80.6928C74.3425 80.7085 80.8713 82.5942 85.6978 83.05C93.9664 83.82 102.647 83.6628 111.701 83.8985C110.747 82.1542 110.317 81.3685 109.942 80.6928C115.929 80.6928 121.129 80.6928 126.311 80.6928L126.199 81.4157L116.602 81.9814L116.677 83.05C124.048 83.05 131.418 82.9871 138.789 83.0657C170.367 83.38 201.944 83.6942 233.504 84.0242C273.949 84.5428 314.394 85.0771 354.82 85.8471C382.301 86.3657 409.726 87.56 437.225 88.0157C453.108 88.2514 469.009 88.5028 484.91 88.7385L491.308 88.8328L491.42 83.27L491.476 80.1271L491.588 74.69L484.91 74.6114C449.348 74.1557 413.766 73.7157 378.185 73.26C336 72.7414 293.816 72.5057 251.65 71.7671C217.378 71.17 183.144 70.0228 148.891 69.1428L73.482 67.2728L58.6472 66.9114L58.1795 80.1271L58.0859 82.9085L59.5077 83.2857ZM319.239 74.6271C320.436 76.4185 321.334 77.7385 323.018 80.2371C311.588 79.1528 301.542 78.1942 291.496 77.2357L291.571 75.57C300.793 75.2557 309.997 74.9414 319.239 74.6271ZM482.216 82.4371L480.794 81.3842L484.966 79.5771L485.228 79.4671L485.64 80.1428L485.958 80.6771C485.228 81.4942 484.685 82.3742 484.274 83.2857L484.947 82.72C478.699 80.74 470.786 82.4842 463.977 81.7614C463.228 81.6828 462.499 81.5571 461.75 81.4471L461.956 80.2214L484.947 80.8185L482.01 83.2857L482.123 80.1428L484.947 82.5157L482.216 82.4371Z" fill="#C5934C"/>
<path d="M83.453 90.2L80.067 91.63L66.2237 97.4914L61.3598 89.3985L61.285 89.2728C60.2187 87.5128 58.0112 86.1142 58.3853 83.8828C58.9091 80.74 57.4687 78.98 55.7102 77.1414C53.9891 75.3342 52.8854 73.1185 51.4637 71.1228C49.911 68.9385 48.377 66.7385 46.6559 64.6642C45.1406 62.8257 43.1951 61.2385 41.7546 59.3528C39.5846 56.5242 37.6952 53.5385 35.6748 50.6314L36.9469 50.1128C37.0404 48.9971 37.5455 47.6771 37.1901 46.7971C35.0013 41.4542 29.015 38.4685 26.078 33.55C24.0763 30.2028 20.6903 27.6571 17.9964 24.7028C17.6971 24.3728 18.0152 23.6342 17.7158 23.2885C16.1631 21.5128 14.7414 19.6428 12.8145 18.1342C11.1122 16.8142 7.91325 16.4057 6.95918 14.7085C5.72451 12.5242 6.07995 9.45995 5.74322 6.77281C7.87584 6.92995 9.26017 7.62138 10.3452 8.53281C11.4676 9.49138 12.2907 10.6542 13.2635 11.7228C12.9268 9.36567 11.8605 7.46424 11.2244 5.35853C10.9999 4.60424 12.5339 2.92281 12.1037 2.37281C10.8503 0.75424 9.48466 -0.817189 8.10033 -2.34147L6.17348 9.00424C7.16496 8.35995 8.15645 7.73138 9.14793 7.10281L-4.32127 5.49995C-3.891 5.97138 -3.47945 6.44281 -3.04918 6.91424C0.692265 4.32138 0.46778 6.04995 1.10383 7.18138C0.0188062 7.62138 -0.579826 7.8571 -0.673363 7.90424C-0.617241 9.19281 -1.01009 10.5757 -0.448876 11.4242C1.32831 14.19 3.44223 16.7828 5.46261 19.4228C7.55782 22.1728 9.72785 24.8914 11.7856 27.6728C13.7873 30.4071 15.6768 33.22 17.641 35.97C19.8485 39.05 22.0372 42.1614 24.3756 45.1628C26.5831 48.0071 28.9028 50.7885 31.3908 53.46C31.7088 53.79 33.3551 53.2871 35.4316 53.0357C37.0217 54.0571 36.0115 57.5457 39.7155 58.1428C38.9298 58.3942 38.5557 58.3314 38.1628 58.2842C38.1254 58.2842 37.9758 58.41 37.639 58.6457C38.3686 59.4628 39.1917 60.2642 39.8652 61.1442C42.2223 64.3185 44.411 67.6028 46.8991 70.6828C48.5828 72.7571 50.6031 74.6428 52.6422 76.4971C53.9704 77.7071 54.9619 79.5614 57.3003 79.6085C60.7425 79.6714 60.7986 81.6357 61.9958 83.0185C62.3887 83.4742 62.8377 84.1814 63.6421 84.0557C66.7475 83.6 69.9838 82.8457 72.6403 82.3271C72.4906 82.1542 73.1453 79.7028 72.7151 78.4771C71.9855 76.3714 70.2644 74.7371 68.8988 72.7885C67.4022 74.03 66.7475 74.58 66.1488 75.0671C65.0825 73.8728 64.1659 72.8357 63.2305 71.8142L63.9414 71.39L66.1863 72.9614L67.1965 72.3014C65.8869 70.84 64.5213 69.3942 63.2679 67.9014C57.9177 61.4428 52.5487 55 47.3107 48.4785C40.6135 40.1185 33.9163 31.7428 27.4436 23.2257C23.0474 17.4428 19.2872 11.2671 14.8349 5.51567L8.49318 -2.56147L5.14458 -6.7729L-0.467582 -3.63005L-3.57298 -1.90147L-8.75488 1.00567L-4.88249 5.82996L12.8333 27.8928C19.8485 36.5985 27.1256 45.1471 33.935 53.9785C39.4723 61.16 44.4672 68.6557 49.7426 76.01L60.0129 90.2471L66.9907 99.9271L81.0585 92.7614L84.1639 91.1742L83.453 90.2ZM23.0474 37.0542C24.5253 35.7342 25.629 34.7757 27.7242 32.9371C28.7157 35.86 29.5949 38.4371 30.4742 41.0142L28.8841 42.0042C26.9198 40.3542 24.9929 38.7042 23.0474 37.0542ZM3.04937 1.68138L2.30109 2.59281L-0.168267 2.84424L-0.0373167 2.04281L-0.0747302 1.72852C2.24497 2.92281 3.47964 2.54567 4.47112 1.85424L1.88953 1.53995C2.65652 2.30995 3.76025 2.92281 4.05956 3.92853C4.11569 4.13281 4.13439 4.35281 4.1531 4.5571L2.95584 5.24853L0.785802 2.21567L5.27554 2.74995L2.03918 4.36853L2.6004 1.05281L3.04937 1.68138Z" fill="#C5934C"/>
<path d="M-12.1598 3.14281L-11.954 -4.55179e-05L-11.187 -12.21L1.87065 -11.6129L11.2804 -11.1886C19.1 -10.8429 28.0608 -11.4872 34.4773 -9.90005C43.4942 -7.6529 52.0621 -7.57433 61.5093 -7.6529C70.8255 -7.73147 80.1417 -7.13433 89.4766 -6.89862C99.6346 -6.63147 109.793 -6.34862 119.969 -6.23862C128.949 -6.16005 137.966 -6.50576 146.926 -6.34862C160.377 -6.1129 173.827 -5.59433 187.259 -5.20147L186.361 -4.03862C189.747 -3.30004 192.965 -2.16862 196.519 -1.88576C218.107 -0.141474 239.827 -2.3729 261.564 -1.39862C276.343 -0.738617 291.402 -1.47719 306.349 -1.52433C308.052 -1.52433 309.754 -0.864331 311.457 -0.848617C320.305 -0.832903 329.191 -0.660046 337.965 -1.0529C345.672 -1.39862 353.436 -3.30005 360.806 -2.9229C370.328 -2.43576 379.457 -0.361474 388.773 1.0371C383.91 2.37281 378.896 2.89138 373.845 3.06424C368.495 3.25281 363.088 3.11138 357.701 3.11138C365.969 4.30567 374.219 4.72995 382.263 5.57853C385.126 5.8771 387.427 7.90424 390.083 7.95138C397.846 8.0771 405.61 8.10853 413.317 8.10853L403.664 -4.55179e-05C403.664 1.05281 403.664 2.10567 403.664 3.14281L413.299 -4.95004C407.93 -4.93433 402.617 -4.93433 397.304 -4.91862C398.09 -0.848617 392.964 -2.0429 388.063 -2.29433C388.867 -3.28433 389.316 -3.83433 389.372 -3.92862C385.126 -4.66719 381.459 -5.75147 377.605 -5.8929C365.09 -6.36433 352.519 -6.49004 339.948 -6.72576C326.853 -6.96147 313.758 -7.19719 300.681 -7.4329C287.829 -7.77862 274.996 -8.12433 262.163 -8.48576C247.777 -8.84719 233.391 -9.24004 219.005 -9.49147C205.405 -9.71147 191.768 -9.83719 178.168 -9.77433C176.446 -9.75862 174.782 -8.36005 171.321 -6.80433C164.848 -6.34862 155.681 -9.13005 146.234 -7.00862C147.057 -7.68433 147.993 -7.90433 148.909 -8.14005C148.984 -8.15576 148.891 -8.32862 148.816 -8.70576C144.682 -8.70576 140.472 -8.62719 136.282 -8.72147C121.316 -9.03576 106.369 -9.55433 91.3847 -9.72719C81.2828 -9.8529 71.1622 -9.61719 61.0603 -9.36576C54.4567 -9.1929 46.5248 -9.64862 41.6422 -8.10862C34.4586 -5.84576 28.0421 -6.97719 21.1765 -7.00862C18.8942 -7.02433 15.7327 -7.13433 14.4793 -6.52147C9.67157 -4.16433 5.48115 -1.54005 1.81453 0.565668C2.67507 0.581383 9.20389 2.4671 14.0303 2.92281C22.2989 3.69281 30.9791 3.53567 40.0334 3.77138C39.0793 2.0271 38.6491 1.24138 38.2749 0.565668C44.2612 0.565668 49.4618 0.565668 54.6437 0.565668L54.5315 1.28853L44.9347 1.85424L45.0095 2.92281C52.3802 2.92281 59.7508 2.85995 67.1215 2.93853C98.6992 3.25281 130.277 3.5671 161.836 3.8971C202.281 4.41567 242.726 4.94995 283.152 5.71995C310.633 6.23852 338.058 7.43281 365.558 7.88852C381.44 8.12424 397.341 8.37567 413.243 8.61138L419.64 8.70567L419.753 3.14281L419.809 -4.55179e-05L419.921 -5.43719L413.243 -5.51576C377.68 -5.97147 342.099 -6.41147 306.518 -6.86719C264.333 -7.38576 222.148 -7.62147 179.982 -8.36005C145.767 -8.95719 111.532 -10.1043 77.2795 -10.9843L1.87065 -12.8543L-12.9642 -13.2158L-13.4319 -4.55179e-05L-13.5254 2.78138L-12.1598 3.14281ZM247.571 -5.51576C248.769 -3.72433 249.667 -2.40433 251.35 0.0942394C239.92 -0.990046 229.874 -1.94862 219.829 -2.90719L219.903 -4.5729C229.126 -4.88719 238.33 -5.20147 247.571 -5.51576ZM410.549 2.29424L409.127 1.24138L413.299 -0.565761L413.561 -0.67576L413.972 -4.55179e-05L414.29 0.53424C413.561 1.35138 413.018 2.23138 412.606 3.14281L413.28 2.5771C407.032 0.597096 399.119 2.34138 392.309 1.61853C391.561 1.53995 390.831 1.41424 390.083 1.30424L390.289 0.0785262L413.28 0.675669L410.343 3.14281L410.455 -4.55179e-05L413.28 2.37281L410.549 2.29424Z" fill="#C5934C"/>
<path d="M483.582 80.1428L484.143 80.52C484.48 80.74 484.106 80.1585 485.322 81.4C487.024 83.1285 487.174 83.1442 487.23 83.0185C487.286 82.8928 487.81 83.3014 488.072 83.4271C488.371 83.5685 488.689 83.7414 488.876 83.7414C488.97 83.7414 488.951 83.6157 488.97 83.5371L489.082 83.0814L499.577 84.81C499.633 84.8257 499.689 84.8414 499.651 84.9043C499.539 85.1714 499.146 85.5957 498.884 85.9571L497.762 86.6485C497.088 87.12 496.041 87.8271 495.798 88.0314C494.32 89.2728 496.621 88.1257 495.872 88.9114C495.367 89.4457 496.191 89.1314 496.359 89.2414C496.378 89.2571 495.76 89.6657 495.76 89.6971C495.816 89.7914 495.723 89.98 496.172 89.8228C496.565 89.6814 498.435 88.6128 498.136 88.9114C497.743 89.2885 495.854 90.6242 494.6 91.5357C493.291 92.29 492.748 92.5571 492.543 92.62C492.318 92.6828 492.412 92.5414 492.374 92.4942C491.308 93.28 490.971 93.61 490.223 94.1914C489.961 94.3957 488.053 95.6371 488.015 95.6843C487.959 95.8414 487.997 95.92 488.053 95.9828L495.76 83.0185C495.667 83.0185 495.573 83.05 495.498 83.05C495.517 87.12 495.442 85.9257 495.367 85.6742C495.386 84.6842 495.386 84.1342 495.386 84.04C495.33 83.3014 495.274 82.2171 495.218 82.0757C495.049 81.6042 494.881 81.4785 494.713 81.2428C494.544 80.9914 494.357 80.8342 494.189 80.5357C494.02 80.2528 493.833 79.8128 493.665 79.4828C493.478 79.1214 493.272 78.7285 493.085 78.4771C492.898 78.2571 492.711 78.1314 492.524 78.1942C492.524 78.1942 492.505 78.5557 492.486 79.1057C492.468 79.6557 492.449 80.3942 492.43 81.1642C492.337 81.62 492.225 78.8385 492.094 80.96C492.112 80.2842 492.131 80.0642 492.131 79.8285C492.131 79.8128 492.131 79.64 492.131 79.2628C492.094 79.2628 492.056 79.2942 492.019 79.2942L506.068 91.0957C506.068 91.08 506.087 91.0642 506.124 91.0485C506.498 90.8757 507.116 90.7028 507.321 90.5457C507.471 90.4357 507.19 90.31 506.891 90.2C506.685 90.1214 507.228 90.0271 505.395 89.98C502.701 89.9014 504.048 89.8228 504.085 89.7442C504.104 89.7128 504.235 89.6814 503.505 89.6657C500.699 89.6185 497.575 89.5714 495.068 89.5242C495.068 89.5242 492.805 89.6028 492.262 89.6657C491.345 89.76 491.532 89.8542 491.252 89.9642C493.328 89.9485 494.264 89.9485 495.068 89.9485C495.068 90.0114 495.068 90.0742 495.068 90.1371H494.208L493.534 90.0271H492.262C492.262 90.1057 492.337 90.2 492.243 90.2785C491.981 90.5614 491.738 90.8285 491.42 91.1114L492 91.5985C492.094 91.6771 492.187 91.7714 492.299 91.85C492.842 92.3685 493.384 92.9028 493.946 93.6728C494.32 94.1914 494.694 95.3857 495.068 95.8414C495.293 96.1242 495.536 96.3757 495.76 96.6114L497.837 98.7328L501.017 87.78C501.204 87.1671 501.298 86.5857 501.429 86.0042C501.578 85.3128 501.466 84.7785 501.821 83.9614C501.934 83.6785 502.158 83.3328 502.42 82.9714L486.837 81.1014C486.257 80.8028 485.602 80.4885 485.041 80.2057C484.274 79.86 483.544 79.5142 482.796 79.1842L483.582 80.1428ZM493.441 82.4842C493.459 84.2757 493.478 85.5957 493.497 88.0942C493.347 87.01 493.197 86.0514 493.066 85.0928V83.4271L493.441 82.4842ZM493.534 92.4942L494.526 91.85L495.536 91.2528L496.041 90.9542L496.172 90.8757L496.228 90.8442L496.265 90.8285L496.284 90.8128L495.742 91.74V92.0071C495.648 87.9214 495.517 90.4828 495.424 89.6342C495.424 89.5557 495.405 89.43 495.386 89.32V88.0942L495.742 88.8014L493.497 92.5885L493.534 92.4942Z" fill="#C5934C"/>
<path d="M94.5837 89.5714L93.8915 89.65C93.4799 89.6971 94.2469 89.7442 92.3575 89.7757C89.6824 89.8228 89.5888 89.87 89.6824 89.9328C89.7759 89.98 89.065 90.0428 88.7844 90.09C88.4664 90.1528 88.111 90.2 87.9987 90.2628C87.9052 90.31 88.3167 90.3571 88.1297 90.42C87.8491 90.4985 87.2317 90.5771 86.764 90.6557H85.3797C84.5005 90.6714 83.1535 90.7028 82.8168 90.7185C80.7403 90.8442 83.3967 90.97 82.2369 91.08C81.975 91.0957 81.8815 91.1114 81.8815 91.1428L81.7505 92.3214L80.5532 92.2585C80.4784 92.2585 80.4036 92.62 80.3475 92.6514C80.3475 92.6357 80.31 91.9914 80.31 91.9757C80.2539 91.96 80.1978 91.7871 80.123 92.18C80.0669 92.5257 80.0107 94.4271 79.9733 94.05C79.9172 93.5628 79.8424 91.4885 79.7862 90.09C79.8237 88.7542 79.8611 88.2357 79.8798 88.0628C79.9172 87.8742 79.9546 88.0157 79.992 88.0157C79.9172 86.8214 79.8798 86.3971 79.8237 85.5485C79.8237 85.25 79.7675 83.2228 79.7675 83.1757C79.7114 83.05 79.6553 83.0185 79.6179 83.0185L87.3253 86.2557C87.2878 86.2242 87.2317 86.2085 87.213 86.1928C83.3406 88.6442 84.4631 87.9057 84.6688 87.7328C85.6229 87.1357 86.1467 86.8057 86.2215 86.7585C86.9137 86.3028 87.9239 85.6271 88.0548 85.5171C88.4477 85.1871 88.5225 85.0457 88.6909 84.8414C88.878 84.6371 88.9715 84.48 89.2147 84.2442C89.3456 84.1185 89.514 83.9614 89.6824 83.7885L87.0446 99.44C87.1943 99.55 87.3253 99.66 87.4562 99.7542C87.7929 99.99 88.1484 100.257 88.4103 100.399C88.6535 100.524 88.8031 100.587 88.8218 100.477C88.8218 100.461 87.8303 99.33 86.7266 98.0728C86.446 97.6957 88.4664 99.88 87.0072 98.1514C87.4749 98.7014 87.6246 98.8742 87.7929 99.0628C87.8116 99.0785 87.9239 99.22 88.2045 99.5185C88.2232 99.5028 88.2045 99.4242 88.2793 99.4871C88.5973 99.6914 89.0276 100.053 89.2334 100.131C89.3643 100.194 89.2708 99.9742 89.1399 99.7385C89.0463 99.5814 89.4205 99.9114 88.3541 98.67C86.764 96.8314 87.6246 97.7271 87.6807 97.7271C87.6994 97.7271 87.7929 97.8057 87.3627 97.3185C85.6977 95.4171 83.8457 93.2957 82.3678 91.6142C82.3678 91.6142 80.9461 90.1214 80.6094 89.7757C80.0107 89.1785 80.0856 89.3514 79.8611 89.1785C81.1145 90.5771 81.6757 91.19 82.1621 91.74L82.0685 91.8028L81.5447 91.2214L81.1893 90.7342L80.4223 89.8857C80.3849 89.9171 80.3849 89.98 80.2913 89.9485C79.9172 89.8228 79.5618 89.7285 79.0941 89.5085C78.5329 89.2414 77.9529 88.9585 77.2233 88.5185L76.6247 92.0071L76.5686 92.0857C76.1757 92.5257 75.1656 93.3585 74.8475 93.7671C74.6418 94.0185 74.4734 94.2542 74.3237 94.4742L79.5805 96.6742C79.8237 97.1614 80.0668 97.5857 80.31 98.0257C80.3849 98.1514 80.4597 98.2614 80.5158 98.3714L89.1024 91.1585C89.4766 90.9857 89.8133 90.7971 90.4681 90.6242C91.1789 90.4357 92.5446 90.2314 93.5922 90.0428C94.3966 89.8857 95.1449 89.7442 95.9119 89.6028L94.5837 89.5714ZM85.4171 97.3342C84.1263 95.9042 83.1722 94.8514 81.3764 92.8557C82.2182 93.6885 82.9665 94.4271 83.6961 95.15L84.8933 96.4857L85.4171 97.3342ZM79.6366 88.8485L79.6553 89.9014L79.6366 90.9385V91.4571V91.5828V91.6457V91.6771L79.0754 91.4728L78.8322 91.63C82.7046 89.1471 80.2165 90.64 81.0022 90.09C81.077 90.0428 81.1893 89.9642 81.2828 89.8857L82.4427 89.1471L81.8815 89.7285L79.6366 88.7857V88.8485Z" fill="#C5934C"/>
<path d="M83.3597 92.7142L82.7985 92.3371C82.4618 92.1171 82.8359 92.6985 81.6199 91.4571C79.9176 89.7285 79.7679 89.7128 79.7118 89.8385C79.6557 89.9643 79.1319 89.5557 78.87 89.43C78.5707 89.2885 78.2526 89.1157 78.0656 89.1157C77.972 89.1157 77.9907 89.2414 77.972 89.32L77.8785 89.76L67.3837 88.0471C67.3276 88.0314 67.2715 88.0157 67.3089 87.9528C67.4211 87.6857 67.814 87.2614 68.0759 86.9L69.1983 86.2085C69.8718 85.7371 70.9194 85.03 71.1626 84.8257C72.6405 83.5842 70.3395 84.7314 71.0878 83.9457C71.5929 83.4114 70.7697 83.7257 70.6014 83.6157C70.5827 83.6 71.2 83.1914 71.2 83.16C71.1439 83.0657 71.2374 82.8771 70.7884 83.0342C70.3956 83.1757 68.5249 84.2443 68.8242 83.9457C69.217 83.5685 71.1065 82.2328 72.3599 81.3214C73.6694 80.5671 74.2119 80.3 74.4176 80.2371C74.6421 80.1743 74.5486 80.3157 74.586 80.3628C75.6523 79.5771 75.9891 79.2471 76.7373 78.6657C76.9992 78.4614 78.9074 77.22 78.9448 77.1728C79.0009 77.0157 78.9635 76.9371 78.9074 76.8742L71.2 89.8385C71.2935 89.8385 71.3871 89.8071 71.4619 89.8071C71.4432 85.7371 71.518 86.9314 71.5929 87.1828C71.5742 88.1728 71.5742 88.7228 71.5742 88.8171C71.6303 89.5557 71.6864 90.64 71.7425 90.7814C71.9109 91.2528 72.0792 91.3785 72.2476 91.6142C72.416 91.8657 72.6031 92.0228 72.7714 92.3214C72.9398 92.6042 73.1269 93.0443 73.2952 93.3743C73.4823 93.7357 73.6881 94.1285 73.8751 94.38C74.0622 94.6 74.2493 94.7257 74.4364 94.6628C74.4364 94.6628 74.4551 94.3014 74.4738 93.7514C74.4925 93.2014 74.5112 92.4628 74.5299 91.6928C74.6234 91.2371 74.7357 94.0185 74.8666 91.8971C74.8479 92.5728 74.8292 92.7928 74.8292 93.0285C74.8292 93.0442 74.8292 93.2171 74.8292 93.5943C74.8666 93.5943 74.904 93.5628 74.9415 93.5628L60.8923 81.7614C60.8923 81.7771 60.8736 81.7928 60.8362 81.8085C60.4621 81.9814 59.8447 82.1542 59.6389 82.3114C59.4893 82.4214 59.7699 82.5471 60.0692 82.6571C60.275 82.7357 59.7325 82.83 61.5658 82.8771C64.2596 82.9557 62.9127 83.0342 62.8753 83.1128C62.8566 83.1442 62.7256 83.1757 63.4552 83.1914C66.2613 83.2385 69.3854 83.2857 71.8922 83.3328C71.8922 83.3328 74.1558 83.2542 74.6983 83.1914C75.6149 83.0971 75.4278 83.0028 75.7085 82.8928C73.6319 82.9085 72.6966 82.9085 71.8922 82.9085C71.8922 82.8457 71.8922 82.7828 71.8922 82.72H72.7527L73.4262 82.83H74.6983C74.6983 82.7514 74.6234 82.6571 74.717 82.5785C74.9789 82.2957 75.2221 82.0285 75.5401 81.7457L74.9602 81.2585C74.8666 81.18 74.7731 81.0857 74.6608 81.0071C74.1183 80.4885 73.5758 79.9542 73.0146 79.1842C72.6405 78.6657 72.2663 77.4714 71.8922 77.0157C71.6677 76.7328 71.4245 76.4814 71.2 76.2457L69.1235 74.1242L65.9433 85.0771C65.7562 85.69 65.6627 86.2714 65.5317 86.8528C65.3821 87.5442 65.4943 88.0785 65.1389 88.8957C65.0266 89.1785 64.8021 89.5242 64.5402 89.8857L80.1234 91.74C80.7033 92.0385 81.358 92.3528 81.9193 92.6357C82.6862 92.9814 83.4158 93.3114 84.1641 93.6571L83.3597 92.7142ZM73.4823 90.3728C73.4636 88.5814 73.4449 87.2614 73.4262 84.7628C73.5758 85.8471 73.7255 86.8057 73.8564 87.7643V89.43L73.4823 90.3728ZM73.4075 80.3628L72.416 81.0071L71.4058 81.6042L70.9007 81.9028L70.7697 81.9814L70.7136 82.0128L70.6762 82.0285L70.6575 82.06L71.2 81.1328V80.8657C71.2935 84.9514 71.4245 82.39 71.518 83.2385C71.518 83.3171 71.5367 83.4428 71.5554 83.5528V84.7785L71.2 84.0714L73.4449 80.2842L73.4075 80.3628Z" fill="#C5934C"/>
<path d="M472.339 83.2857L473.031 83.2071C473.442 83.16 472.675 83.1128 474.565 83.0814C477.24 83.0342 477.333 82.9871 477.24 82.9242C477.146 82.8771 477.857 82.8142 478.138 82.7671C478.456 82.7042 478.811 82.6571 478.924 82.5942C479.017 82.5471 478.606 82.5 478.793 82.4371C479.073 82.3585 479.691 82.28 480.158 82.2014H481.543C482.422 82.1857 483.769 82.1542 484.105 82.1385C486.182 82.0128 483.526 81.8871 484.685 81.7771C484.929 81.7457 485.003 81.73 485.003 81.6985L485.19 80.4885L486.332 80.5828C486.406 80.5828 486.481 80.2214 486.537 80.19C486.537 80.2057 486.575 80.85 486.575 80.8657C486.631 80.8814 486.687 81.0542 486.762 80.6614C486.818 80.3157 486.874 78.4142 486.912 78.7914C486.968 79.2785 487.042 81.3528 487.099 82.7514C487.061 84.0871 487.024 84.6057 487.005 84.7785C486.968 84.9671 486.93 84.8257 486.893 84.8257C486.968 86.02 487.005 86.4442 487.061 87.2928C487.061 87.5914 487.117 89.6185 487.117 89.6657C487.173 89.7914 487.23 89.8228 487.267 89.8228L479.56 86.5857C479.597 86.6171 479.653 86.6328 479.672 86.6485C483.544 84.1971 482.422 84.9357 482.216 85.1085C481.262 85.7057 480.738 86.0357 480.663 86.0828C479.971 86.5385 478.961 87.2143 478.83 87.3243C478.437 87.6543 478.362 87.7957 478.194 88C478.007 88.2042 477.913 88.3614 477.67 88.5971C477.539 88.7228 477.371 88.88 477.203 89.0528L479.859 73.4014C479.709 73.2914 479.578 73.1814 479.447 73.0871C479.111 72.8514 478.755 72.5842 478.493 72.4428C478.25 72.3171 478.1 72.2542 478.082 72.3642C478.082 72.38 479.073 73.5114 480.177 74.7685C480.458 75.1614 478.437 72.9614 479.896 74.69C479.429 74.14 479.279 73.9671 479.111 73.7785C479.092 73.7628 478.98 73.6214 478.699 73.3228C478.68 73.3385 478.699 73.4171 478.624 73.3542C478.306 73.15 477.876 72.7885 477.67 72.71C477.539 72.6471 477.633 72.8671 477.764 73.1028C477.857 73.26 477.483 72.93 478.549 74.1714C480.14 76.01 479.279 75.1142 479.223 75.1142C479.204 75.1142 479.111 75.0357 479.541 75.5228C481.206 77.4242 483.058 79.5457 484.536 81.2271C484.536 81.2271 485.957 82.72 486.294 83.0657C486.893 83.6628 486.818 83.49 487.042 83.6628C485.789 82.2642 485.228 81.6514 484.742 81.1014L484.835 81.0385L485.359 81.62L485.714 82.1071L486.481 82.9557C486.519 82.9242 486.519 82.8614 486.612 82.8928C486.986 83.0185 487.342 83.1128 487.809 83.3328C488.371 83.6 488.951 83.8828 489.68 84.3228L490.279 80.8342L490.335 80.7714C490.728 80.3314 491.738 79.4985 492.056 79.09C492.262 78.8385 492.43 78.6185 492.58 78.3828L487.323 76.1828C487.08 75.6957 486.837 75.2714 486.594 74.8314C486.519 74.7057 486.444 74.5957 486.388 74.4857L477.801 81.6985C477.427 81.8714 477.09 82.06 476.436 82.2328C475.725 82.4214 474.359 82.6257 473.311 82.8142C472.507 82.9714 471.759 83.1128 470.992 83.2542L472.339 83.2857ZM481.505 75.5228C482.796 76.9528 483.731 78.0057 485.527 80.0014C484.685 79.1685 483.956 78.43 483.208 77.7071L482.01 76.3714L481.505 75.5228ZM487.286 84.0085L487.267 82.9557L487.286 81.9185V81.4V81.2742V81.2114V81.18L487.847 81.3842L488.09 81.2271C484.218 83.71 486.706 82.2171 485.92 82.7671C485.845 82.8142 485.733 82.8928 485.639 82.9714L484.48 83.71L485.041 83.1757L487.286 84.1185V84.0085Z" fill="#C5934C"/>
<path d="M476.548 72.2857L477.109 72.6628C477.446 72.8828 477.072 72.3014 478.288 73.5428C479.99 75.2714 480.14 75.2871 480.196 75.1614C480.252 75.0357 480.776 75.4442 481.038 75.57C481.337 75.7114 481.655 75.8842 481.842 75.8842C481.936 75.8842 481.917 75.7585 481.936 75.68L482.048 75.2242L492.543 76.9528C492.599 76.9685 492.655 76.9842 492.617 77.0471C492.505 77.3142 492.112 77.7385 491.85 78.1L490.728 78.7914C490.055 79.2628 489.007 79.97 488.764 80.1742C487.286 81.4157 489.587 80.2685 488.839 81.0542C488.334 81.5885 489.157 81.2742 489.325 81.3842C489.344 81.4 488.726 81.8085 488.726 81.8242C488.782 81.9185 488.689 82.1071 489.138 81.95C489.531 81.8085 491.401 80.74 491.102 81.0385C490.709 81.4157 488.82 82.7514 487.566 83.6628C486.257 84.4171 485.714 84.6842 485.509 84.7471C485.284 84.81 485.378 84.6685 485.34 84.6214C484.274 85.4071 483.937 85.7371 483.189 86.3185C482.927 86.5228 481.019 87.7642 480.982 87.8114C480.925 87.9685 480.963 88.0471 481.019 88.11L488.726 75.1457C488.633 75.1457 488.539 75.1771 488.464 75.1771C488.483 79.2471 488.408 78.0528 488.333 77.8014C488.352 76.8114 488.352 76.2614 488.352 76.1671C488.296 75.4285 488.24 74.3442 488.184 74.2028C488.015 73.7314 487.847 73.6057 487.679 73.37C487.51 73.1185 487.323 72.9614 487.155 72.6628C486.987 72.38 486.799 71.94 486.631 71.61C486.444 71.2485 486.238 70.8557 486.051 70.6042C485.864 70.3842 485.677 70.2585 485.49 70.3214C485.49 70.3214 485.471 70.6828 485.453 71.2328C485.434 71.7828 485.415 72.5214 485.396 73.2914C485.303 73.7471 485.191 70.9657 485.06 73.0871C485.078 72.4114 485.097 72.1914 485.097 71.9557C485.097 71.94 485.097 71.7671 485.097 71.39C485.06 71.39 485.022 71.4214 484.985 71.4214L499.034 83.2228C499.034 83.2071 499.053 83.1914 499.09 83.1757C499.464 83.0028 500.082 82.83 500.287 82.6728C500.437 82.5628 500.156 82.4371 499.857 82.3271C499.651 82.2485 500.194 82.1542 498.361 82.1071C495.667 82.0285 497.014 81.95 497.051 81.8714C497.07 81.84 497.201 81.8085 496.471 81.7928C493.665 81.7457 490.541 81.6985 488.034 81.6514C488.034 81.6514 485.771 81.73 485.228 81.7928C484.311 81.8871 484.499 81.9814 484.218 82.0914C486.294 82.0757 487.23 82.0757 488.034 82.0757C488.034 82.1385 488.034 82.2014 488.034 82.2642H487.174L486.5 82.1542H485.228C485.228 82.2328 485.303 82.3271 485.209 82.4057C484.947 82.6885 484.704 82.9557 484.386 83.2385L484.966 83.7257C485.06 83.8042 485.153 83.8985 485.266 83.9771C485.808 84.4957 486.351 85.03 486.912 85.8C487.286 86.3185 487.66 87.5128 488.034 87.9685C488.259 88.2514 488.502 88.5028 488.726 88.7385L490.803 90.86L493.983 79.9071C494.17 79.2942 494.264 78.7128 494.395 78.1314C494.544 77.44 494.432 76.9057 494.787 76.0885C494.9 75.8057 495.124 75.46 495.386 75.0985L479.803 73.2285C479.223 72.93 478.568 72.6157 478.007 72.3328C477.24 71.9871 476.51 71.6414 475.762 71.3114L476.548 72.2857ZM486.425 74.6271C486.444 76.4185 486.463 77.7385 486.481 80.2371C486.332 79.1528 486.182 78.1942 486.051 77.2357V75.57L486.425 74.6271ZM486.519 84.6371L487.51 83.9928L488.521 83.3957L489.026 83.0971L489.157 83.0185L489.213 82.9871L489.25 82.9714L489.269 82.9557L488.726 83.8828V84.15C488.633 80.0642 488.502 82.6257 488.408 81.7771C488.408 81.6985 488.39 81.5728 488.371 81.4628V80.2371L488.726 80.9442L486.481 84.7314L486.519 84.6371Z" fill="#C5934C"/>
<path d="M87.5685 81.7142L86.8764 81.7928C86.4648 81.84 87.2318 81.8871 85.3424 81.9185C82.6672 81.9657 82.5737 82.0128 82.6672 82.0757C82.7608 82.1228 82.0499 82.1857 81.7693 82.2328C81.4513 82.2957 81.0958 82.3428 80.9836 82.4057C80.8901 82.4528 81.3016 82.5 81.1146 82.5628C80.8339 82.6414 80.2166 82.72 79.7489 82.7985H78.3646C77.4853 82.8142 76.1384 82.8457 75.8017 82.8614C73.7252 82.9871 76.3816 83.1128 75.2218 83.2228C74.9786 83.2542 74.9038 83.27 74.9038 83.3014L74.7728 84.48L73.5942 84.4014C73.5194 84.4014 73.4446 84.7628 73.3885 84.7942C73.3885 84.7785 73.3511 84.1342 73.3511 84.1185C73.2949 84.1028 73.2388 83.93 73.164 84.3228C73.1079 84.6685 73.0517 86.57 73.0143 86.1928C72.9582 85.7057 72.8834 83.6314 72.8273 82.2328C72.8647 80.8971 72.9021 80.3785 72.9208 80.2057C72.9582 80.0171 72.9956 80.1585 73.033 80.1585C72.9582 78.9642 72.9208 78.54 72.8647 77.6914C72.8647 77.3928 72.8085 75.3657 72.8085 75.3185C72.7524 75.1928 72.6963 75.1614 72.6589 75.1614L80.3663 78.3985C80.3288 78.3671 80.2727 78.3514 80.254 78.3357C76.3816 80.7871 77.5041 80.0485 77.7098 79.8757C78.6639 79.2785 79.1877 78.9485 79.2625 78.9014C79.9547 78.4457 80.9649 77.77 81.0958 77.66C81.4887 77.33 81.5635 77.1885 81.7319 76.9842C81.919 76.78 82.0125 76.6228 82.2557 76.3871C82.3866 76.2614 82.555 76.1042 82.7234 75.9314L80.0857 91.5828C80.2353 91.6928 80.3663 91.8028 80.4972 91.8971C80.8339 92.1328 81.1894 92.4 81.4513 92.5414C81.6945 92.6671 81.8441 92.73 81.8628 92.62C81.8628 92.6042 80.8714 91.4728 79.7676 90.2157C79.487 89.8228 81.5074 92.0228 80.0482 90.2943C80.5159 90.8443 80.6656 91.0171 80.8339 91.2057C80.8526 91.2214 80.9649 91.3628 81.2455 91.6614C81.2642 91.6457 81.2455 91.5671 81.3203 91.63C81.6384 91.8342 82.0686 92.1957 82.2744 92.2742C82.4053 92.3371 82.3118 92.1171 82.1809 91.8814C82.0873 91.7242 82.4615 92.0542 81.3952 90.8128C79.8051 88.9742 80.6656 89.87 80.7217 89.87C80.7404 89.87 80.8339 89.9485 80.4037 89.4614C78.7387 87.56 76.8867 85.4385 75.4089 83.7571C75.4089 83.7571 73.9871 82.2642 73.6504 81.9185C73.0517 81.3214 73.1266 81.4942 72.9021 81.3214C74.1555 82.72 74.7167 83.3328 75.2031 83.8828L75.1095 83.9457L74.5857 83.3642L74.2303 82.8771L73.4633 82.0285C73.4259 82.06 73.4259 82.1228 73.3323 82.0914C72.9582 81.9657 72.6028 81.8714 72.1351 81.6514C71.5739 81.3842 70.9939 81.1014 70.2644 80.6614L69.6657 84.15L69.6096 84.2128C69.2168 84.6528 68.2066 85.4857 67.8885 85.8942C67.6828 86.1457 67.5144 86.3814 67.3647 86.6014L72.6215 88.8014C72.8647 89.2885 73.1079 89.7128 73.3511 90.1528C73.4259 90.2785 73.5007 90.3885 73.5568 90.4985L82.1434 83.2857C82.5176 83.1128 82.8543 82.9242 83.5091 82.7514C84.2199 82.5628 85.5856 82.3585 86.6332 82.17C87.4376 82.0128 88.1859 81.8714 88.9529 81.73L87.5685 81.7142ZM78.402 89.4771C77.1112 88.0471 76.1571 86.9942 74.3612 84.9985C75.2031 85.8314 75.9514 86.57 76.6809 87.2928L77.8782 88.6285L78.402 89.4771ZM72.6215 80.9914L72.6402 82.0442L72.6215 83.0814V83.6V83.7257V83.7885V83.82L72.0603 83.6157L71.8171 83.7728C75.6895 81.29 73.2014 82.7828 73.9871 82.2328C74.0619 82.1857 74.1742 82.1071 74.2677 82.0285L75.4276 81.29L74.8663 81.8242L72.6215 80.8814V80.9914Z" fill="#C5934C"/>
<path d="M399.268 1.57139L399.96 1.49282C400.372 1.44568 399.605 1.39854 401.494 1.36711C404.17 1.31996 404.263 1.27282 404.17 1.20996C404.076 1.16282 404.787 1.09996 405.068 1.05282C405.386 0.989965 405.741 0.942821 405.853 0.879964C405.947 0.832821 405.535 0.785679 405.722 0.722822C406.003 0.64425 406.62 0.565678 407.088 0.487107H408.472C409.352 0.471392 410.698 0.439964 411.035 0.424249C413.112 0.298535 410.455 0.172822 411.615 0.0628216C411.858 0.031393 411.933 0.0156784 411.933 -0.0157501L412.12 -1.22575L413.261 -1.13146C413.336 -1.13146 413.411 -1.49289 413.467 -1.52432C413.467 -1.50861 413.505 -0.864321 413.505 -0.848607C413.561 -0.832893 413.617 -0.660036 413.692 -1.05289C413.748 -1.39861 413.804 -3.30004 413.841 -2.92289C413.897 -2.43575 413.972 -0.361464 414.028 1.03711C413.991 2.37282 413.953 2.89139 413.935 3.06425C413.897 3.25282 413.86 3.11139 413.823 3.11139C413.897 4.30568 413.935 4.72996 413.991 5.57854C413.991 5.87711 414.047 7.90425 414.047 7.95139C414.103 8.07711 414.159 8.10854 414.197 8.10854L406.489 4.87139C406.527 4.90282 406.583 4.91853 406.602 4.93425C410.474 2.48282 409.352 3.22139 409.146 3.39425C408.192 3.99139 407.668 4.32139 407.593 4.36854C406.901 4.82425 405.891 5.49996 405.76 5.60996C405.367 5.93996 405.292 6.08139 405.124 6.28568C404.937 6.48996 404.843 6.64711 404.6 6.88282C404.469 7.00854 404.301 7.16568 404.132 7.33854L406.789 -8.31289C406.639 -8.42289 406.508 -8.53289 406.377 -8.62718C406.04 -8.86289 405.685 -9.13004 405.423 -9.27146C405.18 -9.39718 405.03 -9.46004 405.011 -9.35004C405.011 -9.33432 406.003 -8.20289 407.107 -6.94575C407.387 -6.55289 405.367 -8.75289 406.826 -7.02432C406.358 -7.57432 406.209 -7.74718 406.04 -7.93575C406.022 -7.95146 405.909 -8.09289 405.629 -8.39146C405.61 -8.37575 405.629 -8.29718 405.554 -8.36004C405.236 -8.56432 404.806 -8.92575 404.6 -9.00432C404.469 -9.06718 404.562 -8.84718 404.693 -8.61146C404.787 -8.45432 404.413 -8.78432 405.479 -7.54289C407.069 -5.70432 406.209 -6.60004 406.153 -6.60004C406.134 -6.60004 406.04 -6.67861 406.471 -6.19146C408.136 -4.29004 409.988 -2.16861 411.465 -0.487179C411.465 -0.487179 412.887 1.00568 413.224 1.35139C413.823 1.94854 413.748 1.77568 413.972 1.94854C412.719 0.549964 412.158 -0.0628932 411.671 -0.612893L411.765 -0.67575L412.289 -0.0943219L412.644 0.392822L413.411 1.24139C413.448 1.20996 413.448 1.14711 413.542 1.17854C413.916 1.30425 414.271 1.39854 414.739 1.61854C415.3 1.88568 415.88 2.16854 416.61 2.60854L417.209 -0.880036L417.265 -0.942893C417.658 -1.38289 418.668 -2.21575 418.986 -2.62432C419.191 -2.87575 419.36 -3.09575 419.51 -3.33146L414.253 -5.53146C414.01 -6.01861 413.766 -6.44289 413.523 -6.88289C413.448 -7.00861 413.374 -7.11861 413.317 -7.22861L404.731 -0.0157501C404.357 0.157107 404.02 0.345679 403.365 0.518536C402.654 0.707107 401.289 0.911393 400.241 1.09996C399.437 1.25711 398.688 1.39854 397.921 1.53996L399.268 1.57139ZM408.435 -6.19146C409.726 -4.76146 410.661 -3.70861 412.457 -1.71289C411.615 -2.54575 410.885 -3.28432 410.137 -4.00718L408.94 -5.34289L408.435 -6.19146ZM414.215 2.29425L414.197 1.24139L414.215 0.20425V-0.314321V-0.440035V-0.502892V-0.534321L414.777 -0.330036L415.02 -0.487179C411.147 1.99568 413.635 0.502822 412.85 1.05282C412.775 1.09996 412.663 1.17854 412.569 1.25711L411.409 1.99568L411.971 1.46139L414.215 2.40425V2.29425Z" fill="#C5934C"/>
<path d="M10.289 11L9.72778 10.6228C9.39105 10.4028 9.76519 10.9843 8.54923 9.74283C6.84687 8.01426 6.69721 7.99854 6.64109 8.12425C6.58497 8.24997 6.06116 7.8414 5.79926 7.71568C5.49995 7.57425 5.18192 7.4014 4.99485 7.4014C4.90132 7.4014 4.92002 7.52711 4.90132 7.60568L4.80778 8.04568L-5.68697 6.34854C-5.7431 6.33282 -5.79922 6.31711 -5.7618 6.25425C-5.64956 5.98711 -5.25671 5.56282 -4.99481 5.2014L-3.87237 4.50997C-3.19891 4.03854 -2.15131 3.3314 -1.90811 3.12711C-0.430243 1.88568 -2.73123 3.03282 -1.98294 2.24711C-1.47785 1.71282 -2.30097 2.02711 -2.46933 1.91711C-2.48804 1.9014 -1.8707 1.49282 -1.8707 1.4614C-1.92682 1.36711 -1.83328 1.17854 -2.28226 1.33568C-2.67511 1.47711 -4.54583 2.54568 -4.24652 2.24711C-3.85367 1.86997 -1.96424 0.534253 -0.710852 -0.377176C0.598654 -1.13146 1.14116 -1.39861 1.34694 -1.46146C1.59014 -1.55575 1.4966 -1.41432 1.53402 -1.36718C2.60033 -2.15289 2.93706 -2.48289 3.68535 -3.06432C3.94725 -3.2686 5.85538 -4.51003 5.8928 -4.55718C5.94892 -4.71432 5.91151 -4.79289 5.85538 -4.85575L-1.85199 8.10854C-1.75846 8.10854 -1.66492 8.07711 -1.59009 8.07711C-1.6088 4.00711 -1.53397 5.2014 -1.45914 5.45282C-1.47785 6.44282 -1.47785 6.99283 -1.47785 7.08711C-1.42173 7.82568 -1.3656 8.90997 -1.30948 9.0514C-1.14112 9.52283 -0.972753 9.64854 -0.804387 9.88425C-0.636022 10.1357 -0.448951 10.2928 -0.280586 10.5914C-0.112221 10.8743 0.074852 11.3143 0.243217 11.6443C0.430289 12.0057 0.636069 12.3985 0.823141 12.65C1.01021 12.87 1.19728 12.9957 1.38436 12.9328C1.38436 12.9328 1.40306 12.5714 1.42177 12.0214C1.44048 11.4714 1.45919 10.7328 1.47789 9.96283C1.57143 9.50711 1.68367 12.2885 1.81462 10.1671C1.79592 10.8428 1.77721 11.0628 1.77721 11.2985C1.77721 11.3143 1.77721 11.4871 1.77721 11.8643C1.81462 11.8643 1.85204 11.8328 1.88945 11.8328L-12.1597 0.0313948C-12.1597 0.047109 -12.1784 0.0628244 -12.2158 0.0785387C-12.5899 0.251396 -13.2073 0.424253 -13.4131 0.581395C-13.5627 0.691395 -13.2821 0.81711 -12.9828 0.92711C-12.777 1.00568 -13.3195 1.09997 -11.4862 1.14711C-8.79237 1.22568 -10.1393 1.30425 -10.1767 1.38282C-10.1954 1.41425 -10.3264 1.44568 -9.59678 1.4614C-6.7907 1.50854 -3.66659 1.55568 -1.15982 1.60282C-1.15982 1.60282 1.10375 1.52425 1.64626 1.4614C2.56291 1.36711 2.37584 1.27282 2.65645 1.16282C0.579946 1.17854 -0.355414 1.17854 -1.15982 1.17854C-1.15982 1.11568 -1.15982 1.05282 -1.15982 0.989967H-0.299292L0.374167 1.09997H1.64626C1.64626 1.0214 1.57143 0.92711 1.66497 0.848538C1.92687 0.565681 2.17006 0.298539 2.48808 0.0156816L1.90816 -0.471462C1.81462 -0.550033 1.72109 -0.644319 1.60884 -0.72289C1.02892 -1.27289 0.486411 -1.80718 -0.0748059 -2.57718C-0.430243 -3.09575 -0.804388 -4.29003 -1.17853 -4.74575C-1.42173 -5.0286 -1.64621 -5.28003 -1.8707 -5.51575L-3.9472 -7.63718L-7.12743 3.31568C-7.3145 3.92854 -7.40804 4.50997 -7.53899 5.0914C-7.68865 5.78282 -7.5764 6.31711 -7.93184 7.13425C-8.04408 7.41711 -8.26857 7.76283 -8.53047 8.12425L7.05265 9.99425C7.63257 10.2928 8.28732 10.6071 8.84854 10.89C9.61554 11.2357 10.3451 11.5657 11.0934 11.9114L10.289 11ZM0.411581 8.65854C0.392874 6.86711 0.374167 5.54711 0.35546 3.04854C0.505118 4.13282 0.654776 5.09139 0.785726 6.04997V7.71568L0.411581 8.65854ZM0.336753 -1.35146L-0.65473 -0.707176L-1.66492 -0.110033L-2.17001 0.188538L-2.30097 0.26711L-2.35709 0.298538L-2.3945 0.329967L-2.41321 0.345682L-1.8707 -0.581461V-0.848604C-1.77716 3.23711 -1.64621 0.675682 -1.55268 1.52425C-1.55268 1.60282 -1.53397 1.72854 -1.51526 1.83854V3.06425L-1.8707 2.37282L0.374167 -1.41432L0.336753 -1.35146Z" fill="#C5934C"/>
</g>
<defs>
<radialGradient id="paint0_radial_701_5350" cx="0" cy="0" r="1" gradientUnits="userSpaceOnUse" gradientTransform="translate(100.716 30.4401) rotate(-3.10888) scale(862.949 47.2277)">
<stop stop-color="#DFCB7A"/>
<stop offset="0.1875" stop-color="#C8AA6E"/>
<stop offset="0.5885" stop-color="#C89B3C"/>
<stop offset="1" stop-color="#785A28"/>
</radialGradient>
</defs>
</svg>
